<svg width="79" height="90" viewBox="0 0 79 90" fill="none" xmlns="http://www.w3.org/2000/svg">
<path d="M2 23.123L39.3918 2.00178M40.2242 87.8994L76.3556 66.7782M38.6969 2L77 23.335M2.53001 66.665L40.8331 88M76.6477 22.3433V67.402M2.28436 22.3433L2.28436 67.402" stroke="#303440" stroke-width="3"/>
<g clip-path="url(#clip0_344_108)">
<path d="M43.7966 25.2736C39.8205 23.7754 36.0629 23.0263 32.5237 23.0263C29.0282 23.0263 26.2973 23.754 24.3311 25.2094C22.3649 26.6648 21.3818 28.6766 21.3818 31.245C21.3818 34.3698 23.0421 36.7883 26.3628 38.5005C27.8484 39.2282 29.4651 39.9131 31.2129 40.5552C33.0043 41.1545 34.7957 41.8394 36.5872 42.6099C38.3786 43.3804 40.0171 44.2579 41.5027 45.2425C42.9883 46.227 44.1899 47.5968 45.1075 49.3518C46.025 51.064 46.4838 53.2685 46.4838 55.9653C46.4838 58.6193 45.7192 60.888 44.1899 62.7714C42.6606 64.6549 40.8036 65.939 38.6189 66.6239C36.4779 67.266 34.293 67.5229 31.4093 67.5229C26.0349 67.5229 21.1196 66.2815 17.3183 63.6703L17.646 63.1567C19.0879 64.2696 20.9448 65.1899 23.2169 65.9176C25.5327 66.6025 27.8921 66.945 30.2953 66.945C33.8345 66.945 36.8493 66.1531 39.3399 64.5693C41.8741 62.9426 43.1412 60.5669 43.1412 57.4421C43.1412 54.0176 41.4809 51.3423 38.1602 49.416C36.6746 48.5599 35.0361 47.768 33.2446 47.0403C31.4969 46.3126 29.7273 45.5635 27.9358 44.793C26.1444 43.9797 24.5059 43.0808 23.0203 42.0962C19.6996 39.9559 18.0392 36.9167 18.0392 32.9786C18.0392 29.8538 19.1097 27.3282 21.2507 25.402C23.3917 23.4329 27.1273 22.0417 31.4093 22.0417C35.7349 22.0417 39.602 23.1761 44.0588 24.6315L43.7966 25.2736Z" fill="#303440"/>
<path d="M33.0476 68.7577L31.9336 71.433V20.6012L34.0746 23.8116L61.3395 65.3546V20.6012H62.1915V71.433H60.3561L33.0476 28.6272V68.7577Z" fill="#303440"/>
</g>
<defs>
<clipPath id="clip0_344_108">
<rect width="49.1554" height="53.5072" fill="white" transform="translate(15.0241 19.3664)"/>
</clipPath>
</defs>
</svg>
