<svg width="6" height="11" viewBox="0 0 6 11" fill="none" xmlns="http://www.w3.org/2000/svg">
<path d="M0 7.83203L0.367999 7.464C0.615999 7.864 0.931999 8.24 1.316 8.592C1.7 8.936 2.124 9.212 2.588 9.42C3.06 9.636 3.528 9.744 3.992 9.744C4.368 9.744 4.68 9.66 4.928 9.492C5.176 9.332 5.3 9.096 5.3 8.784C5.3 8.528 5.204 8.316 5.012 8.148C4.82 7.98 4.584 7.844 4.304 7.74C4.024 7.636 3.644 7.524 3.164 7.404C3.156 7.396 3.148 7.392 3.14 7.392C3.14 7.392 3.136 7.392 3.128 7.392C2.512 7.224 2.012 7.068 1.628 6.924C1.244 6.772 0.915999 6.56 0.643999 6.288C0.379999 6.008 0.247999 5.648 0.247999 5.208C0.247999 4.768 0.423999 4.404 0.775999 4.116C1.128 3.82 1.648 3.636 2.336 3.564C1.752 3.388 1.296 3.168 0.967999 2.904C0.647999 2.64 0.487999 2.292 0.487999 1.86C0.487999 1.532 0.567999 1.248 0.727999 1.008C0.887999 0.768 1.12 0.584 1.424 0.456001C1.728 0.32 2.088 0.252 2.504 0.252C2.976 0.252 3.38 0.328 3.716 0.48C4.06 0.632 4.396 0.816 4.724 1.032C4.772 1.064 4.816 1.092 4.856 1.116C4.896 1.14 4.932 1.16 4.964 1.176L4.508 0.0360003L4.532 0H5.024L5.588 2.172L5.3 2.33203C5.1 1.94003 4.844 1.884 4.484 1.572C4.132 1.252 3.748 1 3.332 0.816C2.916 0.632 2.516 0.54 2.132 0.54C1.748 0.54 1.444 0.624 1.22 0.792001C1.004 0.952 0.895999 1.176 0.895999 1.464C0.895999 1.752 0.995999 1.988 1.196 2.172C1.404 2.356 1.656 2.504 1.952 2.616C2.256 2.72 2.668 2.836 3.188 2.964C3.772 3.124 4.252 3.276 4.628 3.42C5.004 3.564 5.324 3.768 5.588 4.032C5.852 4.296 5.984 4.632 5.984 5.04C5.984 5.512 5.8 5.896 5.432 6.192C5.064 6.488 4.56 6.68 3.92 6.768C4.512 6.936 4.964 7.152 5.276 7.416C5.588 7.68 5.744 8.012 5.744 8.412C5.744 8.772 5.652 9.072 5.468 9.312C5.284 9.552 5.036 9.732 4.724 9.852C4.412 9.972 4.056 10.032 3.656 10.032C3.224 10.032 2.84 9.972 2.504 9.852C2.168 9.732 1.812 9.58 1.436 9.396C1.324 9.34 1.216 9.292 1.112 9.252C1.016 9.212 0.935999 9.188 0.871999 9.18L1.112 10.032L0.871999 10.332L0 7.83203ZM3.56 6.6C4.16 6.576 4.648 6.46 5.024 6.252C5.4 6.044 5.588 5.752 5.588 5.376C5.588 5.032 5.416 4.756 5.072 4.548C4.736 4.34 4.284 4.168 3.716 4.032C3.7 4.032 3.684 4.032 3.668 4.032C3.66 4.024 3.648 4.02 3.632 4.02C3.568 3.996 3.5 3.976 3.428 3.96C3.356 3.944 3.284 3.928 3.212 3.912C3.124 3.888 3.032 3.86 2.936 3.828C2.848 3.796 2.76 3.764 2.672 3.732C2.048 3.74 1.556 3.852 1.196 4.068C0.835999 4.276 0.655999 4.556 0.655999 4.908C0.655999 5.196 0.795999 5.448 1.076 5.664C1.356 5.872 1.748 6.048 2.252 6.192L2.3 6.204C2.508 6.26 2.724 6.324 2.948 6.396C3.172 6.46 3.376 6.528 3.56 6.6Z" fill="black"/>
</svg>
